<svg xmlns="http://www.w3.org/2000/svg" viewBox="0 0 2400 1400" preserveAspectRatio="xMidYMid slice"><defs><linearGradient id="a" x1="0" y1="0" x2="1" y2="1"><stop stop-color="#182536"/><stop offset=".5" stop-color="#0b121b"/><stop offset="1" stop-color="#020305"/></linearGradient><radialGradient id="b" cx="72%" cy="38%" r="62%"><stop stop-color="#6f8c75" stop-opacity=".55"/><stop offset="1" stop-color="#000" stop-opacity="0"/></radialGradient><pattern id="c" width="115" height="115" patternUnits="userSpaceOnUse" patternTransform="rotate(24)"><path d="M0 0H115M0 0V115" stroke="#b8d5b0" stroke-opacity=".18" stroke-width="3"/><circle cx="18" cy="30" r="4" fill="#d6f4b8" fill-opacity=".6"/><circle cx="78" cy="82" r="3" fill="#d6f4b8" fill-opacity=".42"/></pattern></defs><rect width="2400" height="1400" fill="url(#a)"/><rect width="2400" height="1400" fill="url(#b)"/><path d="M-100 1080C430 820 660 1060 990 760S1580 300 2500 450M80 1210C500 1010 760 1160 1050 850S1660 450 2400 540" fill="none" stroke="#d0efb8" stroke-opacity=".32" stroke-width="7"/><path d="M0 0L2400 0L2400 1400L0 1400Z" fill="url(#c)" opacity=".7"/><g fill="#d8f7bb"><circle cx="1720" cy="420" r="9"/><circle cx="1850" cy="500" r="6"/><circle cx="1530" cy="620" r="5"/><circle cx="2010" cy="700" r="7"/></g><rect width="2400" height="1400" fill="#000" opacity=".2"/></svg>